<svg version="1.1" xmlns="http://www.w3.org/2000/svg" style="display: block;" viewBox="0 0 2048 2048" width="1024" height="1024" preserveAspectRatio="none">
<path transform="translate(0,0)" fill="rgb(171,27,22)" d="M 1153.22 227.224 C 1179.22 224.956 1236.73 240.798 1262.77 249.293 C 1439.81 306.386 1552.21 426.583 1635.53 587.782 C 1829.49 963.064 1722.57 1457.92 1325.98 1648.49 C 1277.27 1671.89 1221.21 1693.24 1167.31 1700.86 C 1158.16 1702.15 1147.08 1699.78 1138.37 1696.93 C 1133.32 1694.63 1126.61 1690.49 1122.31 1686.94 C 1109.06 1676.08 1100.7 1660.35 1099.12 1643.29 C 1096.99 1620.29 1106.38 1598.26 1125.32 1584.78 C 1139.78 1574.48 1155.9 1572.77 1172.78 1568.1 C 1185.03 1564.66 1197.19 1560.87 1209.22 1556.73 C 1306.37 1522.45 1392.43 1462.52 1458.29 1383.3 C 1553.76 1268.84 1599.83 1121.13 1586.36 972.688 C 1563.58 732.501 1395.68 532.703 1161.15 472.935 C 1145.87 469.04 1134.18 466.928 1121.61 456.327 C 1108.2 445.103 1099.95 428.903 1098.74 411.459 C 1096 372.232 1122.82 345.73 1161.12 343.374 C 1088.95 333.997 1084.34 241.224 1153.22 227.224 z"/>
<path transform="translate(0,0)" fill="rgb(171,27,22)" d="M 878.791 227.363 C 892.955 225.441 907.332 228.794 919.184 236.784 C 931.588 245.49 940.014 258.778 942.599 273.711 C 949.677 312.773 923.095 337.212 886.815 342.6 C 888.379 342.748 889.942 342.911 891.503 343.087 C 944.278 349.162 967.834 410.297 933.041 449.571 C 916.418 468.477 891.581 471.762 868.299 478.056 C 797.667 497.153 733.97 530.665 675.971 575.511 C 556.141 668.38 478.63 805.483 460.84 956.04 C 432.582 1197.65 561.873 1430.29 781.972 1533.87 C 807.785 1546.12 833.452 1556.11 860.665 1564.62 C 888.14 1573.22 916.774 1572.5 935.519 1597.03 C 946.146 1611.18 950.786 1628.94 948.438 1646.48 C 945.961 1664.98 937.304 1678.35 922.711 1689.63 C 915.657 1694.13 904.663 1699.67 896.394 1700.17 C 840.975 1703.53 739.562 1659.39 693.662 1634.55 C 663.349 1617.92 634.211 1599.24 606.453 1578.62 C 448.85 1460.33 353.508 1287.42 326.148 1093.23 C 296.047 869.913 354.47 643.674 488.937 462.849 C 584.148 336.758 721.284 249.272 878.791 227.363 z"/>
<path transform="translate(0,0)" fill="rgb(11,172,199)" d="M 1032.07 578.086 C 1060.48 579.262 1081.13 581.608 1109.27 586.529 C 1115.12 587.493 1119.79 588.328 1125.59 589.698 C 1131.73 591.636 1137.17 592.954 1143.43 594.461 C 1159.57 599.434 1186.13 607.986 1201.54 615.107 C 1206.65 617.555 1212.09 620.328 1217.34 622.374 C 1248.14 637.621 1277.17 656.198 1303.92 677.773 C 1276.97 701.003 1249.55 723.682 1221.68 745.797 C 1184.45 718.526 1170.61 704.965 1125.92 684.968 L 1109.76 678.933 C 1100.87 671.342 1045.59 659.941 1031.92 657.279 C 1026.05 656.783 1021.7 656.191 1015.9 655.245 C 1006.9 651.279 949.918 653.445 938.04 654.951 L 938.135 796.114 C 953.141 804.059 962.326 817.553 952.793 834.185 C 949.268 840.349 943.393 844.82 936.511 846.574 C 921.302 850.442 912.052 841.39 904.697 829.66 C 891.859 828.519 874.369 829.105 861.155 829.298 C 850.845 839.471 838.819 851.04 829.061 861.642 L 829.017 904.548 C 843.794 913.1 853.368 927.145 843.304 943.742 C 839.45 950.167 833.066 954.669 825.72 956.143 C 811.954 958.779 801.878 949.845 796.12 938.282 L 678.21 938.129 C 656.05 938.148 628.212 937.421 606.454 938.574 C 601.673 955.037 594.152 999.924 595.504 1016.09 L 595.086 1032 L 572.901 1032.09 L 573.098 1016.05 C 574.34 1008.16 574.43 993.365 575.069 984.746 C 576.315 969.058 578.615 953.471 581.951 938.091 C 582.226 934.625 584.167 925.919 584.926 922.107 C 615.208 813.816 671.091 725.493 764.198 660.058 C 777.76 650.669 791.765 641.935 806.165 633.888 C 812.176 630.597 823.273 625.541 828.306 622.281 L 829.953 621.192 C 834.506 619.009 842.331 614.965 846.825 613.703 C 875.322 602.484 892.251 596.876 922.006 589.44 C 927.093 587.839 932.998 586.989 938.301 586.039 C 967.619 581.039 986.242 579.185 1016.02 577.903 C 1020.87 577.787 1027.41 577.364 1032.07 578.086 z M 606.454 938.574 C 628.212 937.421 656.05 938.148 678.21 938.129 L 796.12 938.282 C 801.878 949.845 811.954 958.779 825.72 956.143 C 833.066 954.669 839.45 950.167 843.304 943.742 C 853.368 927.145 843.794 913.1 829.017 904.548 L 829.061 861.642 C 838.819 851.04 850.845 839.471 861.155 829.298 C 874.369 829.105 891.859 828.519 904.697 829.66 C 912.052 841.39 921.302 850.442 936.511 846.574 C 943.393 844.82 949.268 840.349 952.793 834.185 C 962.326 817.553 953.141 804.059 938.135 796.114 L 938.04 654.951 C 932.528 655.492 927.591 656.024 922.097 656.834 C 854.642 665.544 790.92 692.775 738.003 735.505 C 729.675 742.351 717.489 751.265 711.297 759.778 C 704.337 765.556 701.183 769.878 695.088 776.308 C 662.666 809.291 621.815 877.364 611.105 922.018 C 609.855 926.717 608.052 934.278 606.454 938.574 z"/>
<path transform="translate(0,0)" fill="rgb(47,47,56)" d="M 922.097 656.834 C 927.591 656.024 932.528 655.492 938.04 654.951 L 938.135 796.114 C 953.141 804.059 962.326 817.553 952.793 834.185 C 949.268 840.349 943.393 844.82 936.511 846.574 C 921.302 850.442 912.052 841.39 904.697 829.66 C 891.859 828.519 874.369 829.105 861.155 829.298 C 850.845 839.471 838.819 851.04 829.061 861.642 L 829.017 904.548 C 843.794 913.1 853.368 927.145 843.304 943.742 C 839.45 950.167 833.066 954.669 825.72 956.143 C 811.954 958.779 801.878 949.845 796.12 938.282 L 678.21 938.129 C 656.05 938.148 628.212 937.421 606.454 938.574 C 608.052 934.278 609.855 926.717 611.105 922.018 L 695.313 922.272 C 696.153 909.8 695.358 895.593 695.62 882.88 C 696.344 847.71 694.37 811.301 695.088 776.308 C 701.183 769.878 704.337 765.556 711.297 759.778 C 709.825 812.155 710.785 869.821 711.063 922.506 C 734.601 921.146 771.389 922.301 795.703 922.238 C 801.286 912.471 802.948 909.9 813.604 906.257 C 812.61 891.646 813.1 870.109 813.024 854.96 C 822.749 843.436 843.031 824.477 854.552 813.04 L 905.77 813.109 C 910.226 802.783 912.068 800.82 922.115 796.032 C 923.508 752.181 922.27 701.146 922.097 656.834 z M 934.522 830.248 C 939.695 828.041 942.092 822.052 939.87 816.885 C 937.647 811.718 931.651 809.339 926.491 811.576 C 921.352 813.804 918.985 819.77 921.198 824.915 C 923.411 830.061 929.37 832.446 934.522 830.248 z M 822.497 940.25 C 827.94 939.525 831.764 934.524 831.038 929.081 C 830.312 923.638 825.31 919.815 819.867 920.543 C 814.426 921.27 810.605 926.27 811.331 931.711 C 812.057 937.152 817.056 940.975 822.497 940.25 z"/>
<path transform="translate(0,0)" fill="rgb(11,172,199)" d="M 1354.71 670.826 C 1357.33 671.12 1357.14 671.14 1359.35 672.633 C 1361.19 675.943 1361.42 678.408 1360.4 681.999 C 1357.31 692.937 1189.65 911.147 1172.37 934.009 L 1109.06 1017.89 C 1098.3 1032.15 1072.71 1069.9 1058.27 1078.38 C 1033.25 1093.09 1005.35 1089.68 981.736 1072.7 C 976.874 1068.34 973.441 1064.49 969.952 1058.99 C 960.945 1044.75 958.003 1027.5 961.781 1011.07 C 967.867 984.651 986.721 973.65 1006.03 957.136 C 1016.63 948.06 1027.59 939.24 1038.4 930.412 L 1142.99 844.388 L 1270.98 738.63 C 1290.5 722.232 1334.78 683.308 1354.71 670.826 z"/>
<path transform="translate(0,0)" fill="rgb(11,172,199)" d="M 1288.55 822.469 C 1302.87 804.281 1316.98 785.927 1330.87 767.41 C 1339.08 756.45 1350.06 740.874 1359.06 730.921 C 1409 784.89 1439.47 852.203 1459.44 922.093 L 1462.54 938.136 C 1467.83 967.861 1469.93 985.649 1471.65 1015.88 C 1471.88 1021.45 1472.03 1026.34 1471.97 1031.93 C 1431.64 1032.5 1391.31 1032.55 1350.99 1032.09 L 1350.93 1016.19 C 1351.09 996.206 1345.26 957.139 1339.62 938.01 C 1338.69 933.545 1336.61 926.545 1335.39 921.961 C 1321.37 878.055 1312.8 860.938 1288.55 822.469 z"/>
<path transform="translate(0,0)" fill="rgb(47,47,56)" d="M 815.599 1092.37 C 819.835 1092.09 823.87 1091.75 828.014 1092.87 C 834.649 1094.62 840.318 1098.93 843.781 1104.85 C 847.191 1110.81 848.046 1117.89 846.151 1124.49 C 843.197 1134.53 837.451 1138.39 828.965 1142.81 L 829.015 1186.23 C 839.444 1196.83 851.763 1208.92 862.739 1218.9 C 876.704 1219.67 891.853 1219.2 905.942 1219.02 C 909.838 1205.89 921.059 1198.56 934.695 1201.3 C 942.236 1202.82 948.799 1207.42 952.791 1214 C 962.979 1230.83 952.797 1244.06 937.759 1252.01 C 938.892 1280.89 937.994 1316.94 938.011 1346.3 L 937.993 1522.51 C 932.79 1521.52 927.642 1521.07 922.38 1520.51 L 922.151 1353.09 C 901.787 1351.56 875.238 1352.31 854.412 1352.3 C 813.685 1352.17 772.957 1352.25 732.231 1352.54 C 721.323 1342.67 705.183 1325.92 694.964 1315.23 C 695.423 1292.99 695.632 1270.74 695.594 1248.49 C 695.639 1233.62 696.084 1215.8 695.047 1201.27 C 700.32 1201.4 705.82 1201.29 711.113 1201.26 L 711.012 1216.48 L 710.915 1308.35 C 720.155 1318.32 729.966 1327.62 739.729 1337.08 C 752.719 1335.9 785.648 1336.93 800.142 1336.95 L 922.37 1336.99 L 922.262 1252.65 C 911.884 1246.31 910.972 1245.41 904.897 1234.88 C 888.51 1234.62 871.321 1234.99 854.812 1234.94 C 848.607 1229.53 817.222 1198.33 812.877 1192.66 C 813.219 1176.17 813.299 1159.67 813.117 1143.18 C 803.679 1137.66 801.449 1135.76 796.782 1125.95 C 733.183 1124.87 668.952 1126.05 605.303 1125.6 C 579.134 1125.41 551.99 1126.28 525.963 1125.46 L 522.728 1109.41 C 557.592 1110.38 594.429 1109.62 629.554 1109.62 L 797.689 1109.45 C 802.312 1099.05 805.279 1096.87 815.599 1092.37 z M 826.097 1126.5 C 830.917 1124.05 832.903 1118.2 830.575 1113.32 C 828.246 1108.44 822.451 1106.3 817.51 1108.5 C 814.198 1109.98 811.947 1113.13 811.631 1116.74 C 811.315 1120.36 812.984 1123.86 815.99 1125.88 C 818.996 1127.91 822.865 1128.15 826.097 1126.5 z M 933.488 1236.4 C 936.894 1235.29 939.434 1232.42 940.127 1228.9 C 940.821 1225.39 939.561 1221.77 936.833 1219.45 C 934.104 1217.12 930.333 1216.46 926.973 1217.7 C 921.914 1219.57 919.285 1225.15 921.06 1230.25 C 922.835 1235.34 928.36 1238.08 933.488 1236.4 z"/>
<path transform="translate(0,0)" fill="rgb(47,47,56)" d="M 1218.8 1092.44 C 1236.2 1089.93 1243.82 1095.15 1251.72 1110.1 C 1272.89 1108.4 1316.4 1109.72 1338.84 1109.72 L 1524.69 1109.83 C 1523.71 1115.18 1522.45 1120.66 1521.31 1125.98 C 1504.66 1125.13 1481.8 1125.71 1464.74 1125.68 L 1352.19 1125.79 C 1350.93 1187.97 1352.31 1253.5 1352.14 1316.03 C 1340.46 1328.02 1328.18 1340.82 1316.22 1352.45 C 1279.23 1352.28 1239.13 1351.61 1202.36 1352.7 L 1202.18 1337.08 L 1308.48 1336.93 C 1317.57 1328.7 1328.54 1317.24 1337.45 1308.48 L 1337.09 1125.79 L 1320.01 1125.88 C 1298.69 1126.5 1273.96 1125.85 1252.37 1125.84 C 1246.88 1136.17 1244.02 1138.29 1233.99 1143.14 C 1235.16 1157.76 1234.84 1178.17 1234.95 1192.96 C 1225.86 1203.11 1203.18 1225.54 1193.05 1234.61 C 1177.63 1233.86 1158.35 1234.33 1142.63 1234.29 C 1138.08 1245.12 1135.45 1247.23 1125.14 1252.89 C 1126.93 1273.26 1125.59 1316.69 1125.58 1339.2 L 1125.88 1520.52 C 1120.51 1521.28 1115.02 1522.18 1109.65 1523.01 C 1110.2 1507.98 1110.31 1491.61 1109.92 1476.62 C 1108.01 1402.98 1112.72 1326.78 1109.36 1253.52 C 1097.23 1245.39 1088.41 1234.93 1092.81 1219.33 C 1094.79 1212.58 1099.4 1206.92 1105.61 1203.61 C 1122.16 1194.72 1135.67 1203.7 1143.01 1218.91 C 1157.56 1219.19 1172.12 1219.25 1186.68 1219.11 C 1191.85 1211.63 1211.4 1192.76 1218.85 1186.77 L 1218.72 1142.5 C 1193.97 1133.52 1194.68 1103.79 1218.8 1092.44 z M 1230.61 1127.51 C 1234.06 1126.2 1236.53 1123.14 1237.09 1119.5 C 1237.64 1115.86 1236.2 1112.2 1233.31 1109.92 C 1230.41 1107.64 1226.52 1107.09 1223.11 1108.48 C 1217.92 1110.59 1215.4 1116.49 1217.45 1121.71 C 1219.51 1126.92 1225.38 1129.51 1230.61 1127.51 z M 1120.68 1236.67 C 1125.92 1235.17 1128.98 1229.73 1127.55 1224.47 C 1126.13 1219.21 1120.74 1216.07 1115.46 1217.42 C 1111.97 1218.31 1109.24 1221.01 1108.3 1224.49 C 1107.36 1227.96 1108.37 1231.67 1110.93 1234.19 C 1113.5 1236.71 1117.22 1237.66 1120.68 1236.67 z"/>
<path transform="translate(0,0)" fill="rgb(47,47,56)" d="M 1018.25 1201.26 C 1022.7 1200.95 1026.22 1200.64 1030.57 1201.8 C 1037.34 1203.52 1043.13 1207.88 1046.66 1213.9 C 1050.12 1220 1050.92 1227.25 1048.87 1233.95 C 1045.97 1243.7 1040 1247.79 1031.81 1252.19 L 1031.81 1439.49 C 1031.84 1468.49 1032.6 1501.24 1031.55 1530.01 L 1016 1530 L 1016.06 1252.51 C 1002.01 1244.13 992.909 1232.33 1000.75 1214.39 C 1003.85 1207.28 1011.02 1203.56 1018.25 1201.26 z M 1026.43 1236.25 C 1031.7 1234.94 1034.96 1229.66 1033.77 1224.35 C 1032.59 1219.05 1027.38 1215.66 1022.05 1216.72 C 1018.49 1217.43 1015.59 1220.02 1014.48 1223.48 C 1013.37 1226.93 1014.22 1230.72 1016.7 1233.38 C 1019.18 1236.03 1022.9 1237.13 1026.43 1236.25 z"/>
<path transform="translate(0,0)" fill="rgb(47,47,56)" d="M 796.083 1015.94 C 808 991.975 839.552 992.665 845.767 1016.26 C 847.739 1023.76 846.496 1031.74 842.337 1038.28 C 828.525 1059.84 807.361 1050.73 796.027 1031.89 C 731.277 1031.72 659.514 1030.45 595.086 1032 L 595.504 1016.09 C 661.749 1015.67 729.857 1015.31 796.083 1015.94 z M 823.494 1033.93 C 828.851 1032.66 832.161 1027.28 830.885 1021.93 C 829.609 1016.57 824.23 1013.27 818.876 1014.55 C 813.532 1015.83 810.234 1021.2 811.508 1026.54 C 812.782 1031.89 818.146 1035.19 823.494 1033.93 z"/>
<path transform="translate(0,0)" fill="rgb(47,47,56)" d="M 1015.9 655.245 C 1021.7 656.191 1026.05 656.783 1031.92 657.279 C 1031.38 703.233 1031.79 749.968 1031.89 795.974 C 1051.49 806.277 1058.6 827.525 1038.94 841.61 C 1032.66 846.159 1024.74 847.828 1017.16 846.201 C 1000.89 842.801 995.913 827.928 999.142 812.505 C 1000.73 804.935 1009.61 799.155 1016.01 795.489 L 1015.9 655.245 z M 1027.32 830.35 C 1032.41 828.523 1035.12 822.968 1033.43 817.829 C 1031.73 812.69 1026.25 809.84 1021.06 811.405 C 1017.59 812.454 1014.97 815.303 1014.2 818.846 C 1013.43 822.39 1014.65 826.071 1017.37 828.461 C 1020.1 830.851 1023.91 831.574 1027.32 830.35 z"/>
<path transform="translate(0,0)" fill="rgb(47,47,56)" d="M 1251.57 1031.83 C 1246.68 1044.15 1236.79 1051.69 1223.12 1049.53 C 1215.98 1048.4 1209.6 1044.42 1205.44 1038.51 C 1201.05 1032.43 1199.47 1024.77 1201.1 1017.45 C 1202.63 1010.66 1207.09 1005.58 1213.09 1002.2 C 1229.78 992.789 1243.17 1000.19 1251.83 1016.05 C 1280.08 1015.04 1322.67 1015.27 1350.93 1016.19 L 1350.99 1032.09 C 1317.85 1031.79 1284.71 1031.7 1251.57 1031.83 z M 1230.46 1033.59 C 1235.52 1031.63 1238.14 1026.03 1236.4 1020.9 C 1234.66 1015.76 1229.17 1012.91 1223.97 1014.43 C 1220.4 1015.48 1217.69 1018.39 1216.92 1022.03 C 1216.14 1025.66 1217.42 1029.43 1220.24 1031.84 C 1223.07 1034.26 1226.99 1034.93 1230.46 1033.59 z"/>
<path transform="translate(0,0)" fill="rgb(47,47,56)" d="M 1202.15 938.692 C 1215.8 918.646 1231.63 886.363 1251.98 921.999 L 1335.39 921.961 C 1336.61 926.545 1338.69 933.545 1339.62 938.01 C 1310.65 937.981 1280.67 937.595 1251.79 938.269 C 1238.19 961.416 1215.02 963.41 1202.15 938.692 z M 1228.51 940.456 C 1233.91 939.492 1237.55 934.376 1236.69 928.953 C 1235.83 923.53 1230.78 919.798 1225.34 920.562 C 1221.73 921.069 1218.68 923.484 1217.36 926.879 C 1216.03 930.273 1216.64 934.117 1218.96 936.932 C 1221.27 939.747 1224.92 941.095 1228.51 940.456 z"/>
<path transform="translate(0,0)" fill="rgb(47,47,56)" d="M 1109.76 678.933 L 1125.92 684.968 C 1126.05 721.474 1125.04 758.746 1125.98 795.183 C 1143.63 806.098 1146.11 809.702 1128.73 822.172 L 1128.22 821.152 C 1117.24 800.231 1096.19 817.748 1116.53 831.978 C 1111.7 836.101 1107.9 839.219 1102.77 842.975 C 1086.2 826.719 1088.23 805.129 1109.84 795.142 L 1109.76 678.933 z"/>
<path transform="translate(0,0)" fill="rgb(47,47,56)" d="M 833.678 1397.23 C 837.809 1396.91 840.941 1396.89 845.002 1398.03 C 851.93 1399.96 857.79 1404.59 861.26 1410.89 C 870.149 1427.21 861.722 1441.44 846.434 1448.96 C 846.464 1463.38 846.956 1483.34 845.71 1497.39 C 840.815 1495.49 835.723 1493.85 830.741 1492.16 C 830.663 1477.88 830.679 1463.6 830.789 1449.31 C 805.395 1435.7 805.37 1407.1 833.678 1397.23 z M 841.459 1432.9 C 846.733 1431.38 849.793 1425.89 848.311 1420.61 C 846.828 1415.33 841.358 1412.23 836.066 1413.68 C 830.726 1415.14 827.597 1420.67 829.093 1426 C 830.589 1431.33 836.138 1434.43 841.459 1432.9 z"/>
<path transform="translate(0,0)" fill="rgb(47,47,56)" d="M 616.644 1184.4 C 627.019 1183.28 640.813 1184.16 646.377 1193.99 C 664.389 1225.81 619.673 1256.56 599.94 1216.99 L 554.763 1216.95 L 549.062 1201.03 C 566.281 1201.61 581.505 1201.19 598.655 1201.11 C 604.478 1190.78 606.333 1189.65 616.644 1184.4 z M 626.532 1219.41 C 630.179 1218.82 633.218 1216.3 634.467 1212.82 C 635.715 1209.34 634.975 1205.46 632.535 1202.69 C 630.095 1199.92 626.34 1198.69 622.733 1199.49 C 617.372 1200.67 613.924 1205.9 614.952 1211.29 C 615.98 1216.69 621.112 1220.28 626.532 1219.41 z"/>
<path transform="translate(0,0)" fill="rgb(47,47,56)" d="M 1417.12 1184.17 C 1432.64 1182.51 1440.48 1187.24 1447.66 1200.86 C 1464.2 1201.1 1482.82 1201.74 1499.16 1201.01 C 1496.54 1206.23 1494.51 1211.58 1492.32 1216.99 C 1482.12 1216.64 1470.78 1216.82 1460.49 1216.78 L 1448.22 1217.1 C 1441.19 1230.41 1429.48 1239.3 1414.05 1233.2 C 1407.41 1230.51 1402.12 1225.28 1399.34 1218.67 C 1392.35 1201.97 1401.91 1190.19 1417.12 1184.17 z M 1425.55 1219.22 C 1431.09 1217.94 1434.53 1212.38 1433.21 1206.85 C 1431.89 1201.31 1426.3 1197.92 1420.78 1199.28 C 1415.31 1200.64 1411.96 1206.14 1413.27 1211.62 C 1414.58 1217.09 1420.06 1220.49 1425.55 1219.22 z"/>
<path transform="translate(0,0)" fill="rgb(47,47,56)" d="M 1203.2 1397.21 C 1215.11 1396.31 1225.19 1398.7 1231.46 1410 C 1234.89 1416.24 1235.69 1423.58 1233.68 1430.4 C 1230.88 1439.69 1225.06 1444.28 1217.05 1448.86 C 1217.18 1461.43 1217.58 1476.24 1216.74 1488.91 C 1216.58 1491.46 1215.65 1491.39 1213.75 1492.54 C 1210.03 1494.26 1205.5 1495.76 1201.59 1497.18 C 1201.88 1480.97 1201.88 1464.75 1201.58 1448.54 C 1194.54 1445.31 1189.77 1442.07 1186.24 1434.82 C 1183.09 1428.31 1182.75 1420.8 1185.28 1414.04 C 1188.65 1405.02 1194.8 1400.82 1203.2 1397.21 z M 1212.48 1432.89 C 1217.64 1431.27 1220.59 1425.85 1219.16 1420.63 C 1217.72 1415.41 1212.42 1412.27 1207.15 1413.51 C 1203.57 1414.36 1200.74 1417.09 1199.77 1420.64 C 1198.79 1424.19 1199.84 1427.98 1202.49 1430.54 C 1205.13 1433.09 1208.97 1433.99 1212.48 1432.89 z"/>
<path transform="translate(0,0)" fill="rgb(47,47,56)" d="M 1201.92 545.319 C 1207.47 548.488 1212.34 549.708 1218.01 552.166 C 1217.47 573.538 1218.81 602.366 1217.34 622.374 C 1212.09 620.328 1206.65 617.555 1201.54 615.107 C 1200.82 594.08 1202.21 567.408 1201.92 545.319 z"/>
<path transform="translate(0,0)" fill="rgb(47,47,56)" d="M 830.13 551.744 L 846.181 545.952 C 846.066 560.189 844.955 601.607 846.825 613.703 C 842.331 614.965 834.506 619.009 829.953 621.192 C 830.306 598.044 830.365 574.893 830.13 551.744 z"/>
<path transform="translate(0,0)" fill="rgb(47,47,56)" d="M 1110.02 520.449 L 1125.72 523.381 L 1125.59 589.698 C 1119.79 588.328 1115.12 587.493 1109.27 586.529 C 1110.73 573.241 1109.92 535.132 1110.02 520.449 z"/>
<path transform="translate(0,0)" fill="rgb(47,47,56)" d="M 921.937 523.342 L 938.134 520.204 C 938.012 542.149 938.068 564.095 938.301 586.039 C 932.998 586.989 927.093 587.839 922.006 589.44 C 922.404 567.755 922.087 545.057 921.937 523.342 z"/>
<path transform="translate(0,0)" fill="rgb(47,47,56)" d="M 1015.77 513.062 L 1031.82 513.085 C 1031.89 534.481 1031.65 556.762 1032.07 578.086 C 1027.41 577.364 1020.87 577.787 1016.02 577.903 C 1015.98 557.787 1016.55 532.837 1015.77 513.062 z"/>
<path transform="translate(0,0)" fill="rgb(47,47,56)" d="M 1459.44 922.093 L 1522.49 922.142 C 1523.29 926.84 1524.21 933.486 1525.37 937.952 C 1504.62 937.987 1483.24 937.763 1462.54 938.136 L 1459.44 922.093 z"/>
<path transform="translate(0,0)" fill="rgb(47,47,56)" d="M 1471.65 1015.88 C 1491.29 1015.72 1513.45 1015.27 1532.93 1016.04 L 1532.88 1031.96 C 1514.17 1031.61 1490.71 1031.17 1471.97 1031.93 C 1472.03 1026.34 1471.88 1021.45 1471.65 1015.88 z"/>
<path transform="translate(0,0)" fill="rgb(47,47,56)" d="M 525.701 922.131 C 544.999 921.668 565.538 922.061 584.926 922.107 C 584.167 925.919 582.226 934.625 581.951 938.091 C 562.023 938.299 542.093 938.248 522.167 937.938 C 523.094 932.745 524.491 927.293 525.701 922.131 z"/>
<path transform="translate(0,0)" fill="rgb(47,47,56)" d="M 514.786 1015.95 C 534.222 1015.62 553.663 1015.65 573.098 1016.05 L 572.901 1032.09 C 554.745 1031.48 533.421 1031.87 515.175 1031.91 L 514.786 1015.95 z"/>
</svg>