<svg version="1.1" xmlns="http://www.w3.org/2000/svg" style="display: block;" viewBox="0 0 2048 2048" width="1024" height="1024" preserveAspectRatio="none">
<path transform="translate(0,0)" fill="rgb(164,23,21)" d="M 1110.45 315.174 C 1148.07 311.274 1224.39 344.491 1258.19 362.778 C 1372.44 424.601 1455.88 525.138 1494.72 648.316 C 1534.5 773.503 1522.75 909.381 1462.07 1025.88 C 1421.74 1101.64 1362.96 1166.01 1291.16 1213.02 C 1276.25 1222.94 1252.32 1237.59 1235.73 1242.8 C 1200.47 1246.66 1171.63 1219.8 1181.05 1183.51 C 1187.75 1157.69 1218.92 1147.58 1240.28 1133.48 C 1298.18 1095.75 1345.57 1043.94 1378.01 982.902 C 1427.67 889.316 1435.89 776.64 1404.43 675.869 C 1369.98 567.271 1290.61 478.664 1186.45 432.52 C 1163.28 422.362 1137.85 413.53 1113.05 408.216 C 1060.54 396.961 1057.7 328.891 1110.45 315.174 z"/>
<path transform="translate(0,0)" fill="rgb(164,23,21)" d="M 919.817 315.296 C 930.761 314.137 939.349 314.654 949.517 319.898 C 960.961 325.85 969.527 336.16 973.279 348.501 C 976.964 360.721 975.512 373.914 969.26 385.04 C 956.364 407.893 932.391 407.943 909.733 414.66 C 808.887 444.555 726.019 512.474 674.911 603.619 C 623.459 696.731 611.003 806.439 640.271 908.717 C 667.303 1001.47 726.808 1081.4 807.913 1133.9 C 829.994 1148.4 860.726 1156.6 867.851 1184.49 C 870.91 1196.31 869.105 1208.87 862.84 1219.35 C 855.194 1232.27 843.981 1239.4 829.744 1242.91 C 800.604 1244.44 770.414 1222.36 746.588 1205.82 C 634.718 1128.17 560.026 1013.9 536.885 879.181 C 515.431 749.491 546.15 616.579 622.336 509.456 C 689.155 415.187 804.983 334.863 919.817 315.296 z"/>
<path transform="translate(0,0)" fill="rgb(40,42,49)" d="M 1018.82 439.136 C 1026.46 438.19 1032.28 437.882 1032.66 447.772 C 1033.31 464.665 1032.96 481.684 1032.94 498.607 L 1032.93 605.948 C 1044.52 605.347 1059.13 605.71 1070.94 605.708 C 1070.91 595.119 1068.9 533.698 1072.93 528.983 C 1074.53 527.108 1076.53 526.301 1078.91 526.089 C 1082.32 525.787 1084.46 526.87 1087.07 528.905 C 1090.34 533.947 1088.29 594.178 1088.69 605.772 C 1101 605.445 1113.56 605.385 1125.89 605.2 C 1126.06 576.343 1126.06 547.486 1125.9 518.629 C 1099.06 503.716 1112.09 469.751 1137.17 472.596 C 1143.94 473.307 1150.13 476.755 1154.31 482.139 C 1158.14 487.001 1159.77 493.243 1158.8 499.358 C 1157.32 508.591 1151.05 514.051 1144.07 519.219 C 1144.04 548.074 1144.25 576.929 1144.69 605.781 C 1154.59 605.628 1164.98 606.013 1174.91 606.226 C 1167.75 612.115 1159.21 618.287 1151.75 623.94 C 1130.61 625.339 1101.21 624.47 1079.62 624.45 L 951.746 624.246 C 928.985 624.203 906.241 623.704 883.403 624.728 C 862.898 625.648 849.411 641.645 848.959 661.817 C 848.513 681.678 848.641 701.657 848.569 721.538 L 848.431 838.729 L 848.613 905.518 C 848.712 925.028 845.494 948.554 860.325 963.355 C 870.413 973.424 880.296 974.997 893.9 975.098 C 951.703 975.53 1009.52 975.311 1067.32 975.47 L 1126.05 975.64 C 1154.67 975.736 1195.03 980.514 1198.19 940.272 C 1200.16 915.241 1199.13 889.01 1199.1 863.809 C 1198.9 810.384 1199.08 756.958 1199.63 703.535 C 1206.11 695.683 1212.88 689.066 1219.64 680.572 C 1243.69 678.912 1278.49 680.791 1304.39 680.234 C 1320.81 652.979 1355.01 667.557 1349.85 693.511 C 1348.49 700.383 1344.36 706.394 1338.43 710.137 C 1324.43 718.961 1311.95 711.141 1304.65 698.224 C 1277.05 698.553 1245.01 697.334 1217.86 698.868 C 1217.56 711.226 1217.47 723.589 1217.61 735.95 C 1227.84 735.433 1284.59 734.625 1292.31 736.7 C 1299.8 742.243 1297.15 752.429 1289.46 752.962 C 1266.05 754.585 1240.74 753.447 1217.3 753.655 C 1218.09 764.463 1217.76 780.05 1217.81 791.256 C 1233.58 789.879 1376.29 790.231 1380.51 792.013 C 1386.74 798.246 1386.13 807.953 1376.48 808.27 C 1324.36 809.978 1270 806.055 1218.07 809.075 C 1217.36 819.91 1217.86 836.249 1217.88 847.479 C 1228.58 847.198 1287.34 845 1293.23 848.438 C 1295.34 849.668 1296.71 852.221 1297 854.58 C 1297.4 857.685 1296.06 860.349 1294 862.561 C 1289.22 867.71 1228.15 865.128 1217.41 865.078 C 1218.22 873.522 1217.78 893.813 1217.82 903.096 C 1245 902.146 1276.88 902.948 1304.28 903.085 C 1309.24 893.378 1317.34 885.98 1328.92 887.469 C 1348.68 888.798 1358.88 921.553 1341.48 931.525 C 1326.77 939.962 1312.14 934.314 1304.83 920.311 C 1279.71 920.273 1241.81 919.172 1217.87 921.162 C 1217.78 942.712 1218.45 959.655 1201.4 976.533 C 1183.74 994.02 1166.35 993.041 1144.07 993.016 C 1144.63 1021.76 1143.86 1050.77 1144.48 1079.49 C 1161.69 1090.98 1164.27 1109.55 1147.87 1123.23 C 1136.27 1128.44 1122.72 1127.12 1115.07 1116.06 C 1111.26 1110.54 1109.96 1103.67 1111.49 1097.15 C 1113.68 1087.94 1118.52 1084.53 1125.97 1080.08 C 1126.62 1051.73 1126.11 1021.51 1125.99 993.028 L 1088.74 993.147 C 1088.74 1002.41 1090.25 1064.91 1086.58 1069.32 C 1084.9 1071.37 1082.39 1072.56 1079.74 1072.54 C 1077.35 1072.53 1074.9 1071.44 1073.32 1069.65 C 1068.03 1063.68 1070.77 1005.02 1070.86 993.051 L 1032.87 993.153 L 1032.65 1101.45 C 1032.6 1116.99 1032.64 1132.57 1032.89 1148.11 C 1032.94 1151.09 1031.94 1155.64 1030.36 1158.24 C 1026.28 1164.96 1014.24 1158.58 1015.14 1151.61 C 1014.72 1134.27 1014.97 1116.93 1014.98 1099.59 L 1014.99 993.126 L 977.19 993.08 C 977.232 1003.66 979.832 1064.43 974.651 1069.69 C 972.847 1071.52 970.62 1072.77 967.989 1072.69 C 965.485 1072.6 963.09 1071.3 961.442 1069.45 C 957.318 1064.82 959.666 1002.93 959.989 993.218 C 947.876 992.879 934.259 993.2 922.032 993.223 C 921.668 1022.1 922.069 1051.8 922.11 1080.74 C 951.297 1094.95 934.968 1132.03 908.315 1125.53 C 901.419 1123.82 895.502 1119.41 891.894 1113.28 C 883.613 1099.11 891.307 1087.5 904.176 1080.42 C 904.294 1051.32 904.251 1022.23 904.046 993.129 C 898.813 993.221 893.578 993.253 888.344 993.225 C 871.793 993.002 857.858 987.794 846.36 975.639 C 829.209 957.509 830.5 942.597 830.948 920.3 C 804.616 920.266 769.462 919.232 743.966 921 C 733.311 937.167 714.787 943.093 702.199 925.662 C 698.173 920.089 696.643 913.093 697.975 906.349 C 700.657 892.224 713.705 885.983 727.506 888.675 C 735.32 890.199 739.345 896.003 743.22 902.443 L 831.016 902.999 C 830.966 890.365 830.981 877.732 831.06 865.098 C 819.611 865.075 759.232 866.472 753.963 863.444 C 752.006 861.082 751.007 859.094 750.837 855.963 C 750.703 853.491 751.408 851.054 753.282 849.354 C 757.628 845.412 820.044 847.408 830.82 846.972 C 831.035 834.506 830.844 821.546 830.828 809.039 C 792.05 808.514 753.268 808.33 714.486 808.488 C 701.276 808.512 688.107 808.746 674.865 808.885 C 669.234 808.944 663.886 807.349 663.269 800.532 C 662.947 796.976 664.245 795.179 666.552 792.68 C 674.036 789.043 682.537 790.998 690.742 790.966 L 725.948 790.568 C 760.918 790.258 795.889 790.384 830.855 790.946 L 830.966 753.66 C 808.831 753.901 785.166 754.528 762.987 753.747 C 758.056 753.573 753.028 751.131 750.609 746.604 C 748.757 730.242 773.408 735.205 784.546 735.365 C 800.03 735.647 815.519 735.577 831 735.156 L 831.038 698.241 C 802.502 698.729 772.074 697.496 743.934 698.817 C 733.866 716.235 712.637 719.583 701.336 701.951 C 697.635 696.113 696.438 689.031 698.014 682.3 C 701.024 669.063 714.914 663.879 727.509 666.344 C 735.333 667.876 739.596 674.112 743.688 680.399 C 772.808 680.195 801.929 680.321 831.046 680.78 C 830.648 657.593 829.533 637.03 848.982 619.936 C 865.918 605.05 882.829 604.857 904.029 606.218 L 903.979 518.836 C 877.136 505.445 888.687 468.742 915.694 472.409 C 922.528 473.404 928.646 477.18 932.601 482.841 C 942.585 497.064 935.965 510.939 922.327 519.231 C 922.116 548.035 922.109 576.84 922.307 605.644 C 934.56 605.722 946.813 605.569 959.059 605.182 C 959.354 592.812 957.481 535.143 961.352 528.687 C 966.565 524.304 970.374 524.756 975.415 529.052 C 978.946 535.584 977.268 594.498 977.212 605.798 C 989.782 605.657 1002.35 605.409 1014.92 605.054 L 1014.78 497.536 C 1014.78 480.52 1014.5 462.45 1015.33 445.452 C 1015.47 442.705 1017.08 441.072 1018.82 439.136 z"/>
<path transform="translate(0,0)" fill="rgb(40,42,49)" d="M 1461.36 1426.33 C 1488.36 1425 1509.62 1433.23 1524.72 1456.56 C 1539.37 1436.77 1556.36 1427.11 1580.41 1426.38 C 1648.58 1424.33 1655.57 1476.71 1653.72 1531.03 C 1652.86 1556.22 1652.82 1590.41 1653.76 1615.07 L 1619.37 1615.2 C 1620.76 1576.16 1620.52 1530.77 1617.67 1491.7 C 1616.66 1477.91 1607.82 1465.88 1595.06 1460.39 C 1579.85 1453.85 1561.34 1457.75 1549.41 1469.49 C 1533.04 1486 1534.31 1510.87 1534.3 1532.54 L 1534.36 1568.25 C 1534.25 1583.86 1534.27 1599.47 1534.41 1615.09 C 1523.1 1615.17 1511.78 1615.19 1500.47 1615.14 C 1500.42 1579.21 1500.56 1542.88 1500.16 1506.99 C 1499.59 1492.74 1496.09 1475 1484.89 1465.44 C 1469.11 1451.82 1440.99 1455.41 1428.63 1471.94 C 1419.68 1483.93 1415.71 1500.45 1415.83 1515.28 C 1415.97 1532.84 1415.25 1551.12 1415.75 1568.65 C 1416.16 1583.18 1414.34 1601.18 1416.08 1615.28 C 1405.5 1615.74 1392.5 1615.45 1381.72 1615.45 L 1381.82 1429.02 C 1393.01 1429.3 1403.59 1429.13 1414.77 1428.93 C 1414.26 1437.76 1414.29 1442.74 1414.82 1451.59 C 1430.93 1435.32 1438.3 1429.36 1461.36 1426.33 z"/>
<path transform="translate(0,0)" fill="rgb(24,165,189)" d="M 1272.98 562.013 C 1279.74 562.899 1289.34 569.259 1283.39 575.988 C 1269.75 591.413 1256.2 606.983 1242.64 622.536 L 1118.27 764.26 C 1098.1 787.101 1078.17 810.205 1057.53 832.6 C 1041.83 849.635 1018.68 851.058 999.137 839.7 C 974.528 820.649 968.199 786.758 994.12 765.536 C 1012.9 750.16 1034.41 735.765 1054.12 721.35 C 1093.25 692.333 1132.56 663.544 1172.03 634.986 L 1241.49 583.954 C 1247.92 579.262 1266.95 564.645 1272.98 562.013 z"/>
<path transform="translate(0,0)" fill="rgb(40,42,49)" d="M 1256.54 1426.42 C 1257.49 1426.37 1258.45 1426.33 1259.4 1426.3 C 1281.81 1425.57 1302.53 1431.26 1318.79 1447.21 C 1344.04 1472 1346.33 1499.75 1346.76 1532.97 C 1301.07 1533.25 1257.85 1532.07 1211.32 1533.21 C 1214 1545.69 1216.95 1558.21 1225.53 1567.97 C 1240.79 1585.32 1266.64 1591.18 1288.4 1584.46 C 1297.83 1581.55 1303.81 1577.81 1311.11 1571.36 C 1312.93 1569.27 1313.77 1567.8 1316.42 1567.09 C 1323.06 1569.21 1330.58 1581.73 1335.41 1588.01 C 1307.75 1624.54 1244.71 1626.56 1210.29 1598.89 C 1169.26 1565.91 1166.06 1495.58 1198.13 1455.6 C 1213.17 1436.84 1233.31 1428.63 1256.54 1426.42 z M 1211.25 1507.74 C 1232.15 1508.06 1253.06 1508.15 1273.96 1508 C 1287.49 1508.07 1301.02 1508.04 1314.54 1507.89 C 1306.7 1475.74 1293.56 1451.97 1254.98 1456.13 C 1226.69 1462.65 1215.91 1480.75 1211.25 1507.74 z"/>
<path transform="translate(0,0)" fill="rgb(40,42,49)" d="M 805.606 1426.42 C 806.578 1426.37 807.55 1426.33 808.523 1426.3 C 829.172 1425.71 853.16 1429.48 868.47 1444.55 C 892.596 1468.31 888.275 1507.02 888.258 1538.08 L 888.061 1615.02 L 855.961 1614.95 L 855.933 1593.31 C 828.951 1627.9 767.341 1626.67 744.684 1588.74 C 735.307 1569.44 736.315 1540.21 751.85 1524.47 C 776.23 1499.78 822.285 1505.73 854.233 1505.4 C 853.924 1500.71 853.54 1496.18 852.967 1491.57 C 848.541 1455.97 813.873 1449.55 785.029 1459.86 C 773.411 1464.01 767.322 1468.36 757.719 1476.14 C 753.103 1466.91 749.529 1460.03 744.11 1451.13 C 758.822 1434.98 784.586 1428.3 805.606 1426.42 z M 819.241 1589.47 C 852.484 1579.47 854.176 1561.03 853.967 1531.01 C 845.667 1530.08 818.051 1529.61 809.569 1530.43 C 797.788 1531.3 787.687 1532.34 779.323 1542.18 C 774.301 1548.16 771.911 1555.91 772.699 1563.67 C 775.031 1588.55 799.127 1591.87 819.241 1589.47 z"/>
<path transform="translate(0,0)" fill="rgb(40,42,49)" d="M 543.096 1355.68 C 554.278 1355.85 565.834 1355.7 577.049 1355.68 C 576.849 1387.18 576.856 1418.69 577.073 1450.19 C 592.56 1434.6 609.369 1425.89 631.419 1426.17 C 708.406 1427.14 702.012 1493.22 701.979 1546.53 L 701.896 1615.48 C 691.003 1615.79 678.701 1615.52 667.701 1615.51 C 668.518 1582.83 668.05 1548.54 668.078 1515.75 C 668.065 1500.01 667.093 1483.68 656.442 1470.98 C 649.256 1462.46 638.799 1457.37 627.658 1456.99 C 615.196 1456.41 603.044 1460.97 594.045 1469.61 C 572.85 1490.21 576.963 1521.35 576.983 1548.4 L 577.086 1615.68 C 565.717 1615.6 554.347 1615.67 542.981 1615.91 L 542.954 1472 C 543.216 1433.23 543.263 1394.45 543.096 1355.68 z"/>
<path transform="translate(0,0)" fill="rgb(40,42,49)" d="M 1072.14 1384.3 C 1083.44 1384.2 1094.45 1384.59 1105.79 1384.14 L 1106.08 1429.12 L 1153.89 1429.61 C 1153.44 1437.36 1153.06 1449.65 1153.7 1457.1 L 1105.98 1457.19 L 1106.1 1519.9 C 1105.97 1553.9 1100.3 1607.49 1154.02 1579.51 L 1159.6 1596.24 L 1163.22 1606.23 C 1142.23 1620.93 1106.02 1622.5 1087.15 1603.7 C 1068.41 1585.02 1072.12 1552.37 1072.12 1527.71 L 1072.13 1457.36 C 1062.55 1457.37 1052.98 1457.46 1043.4 1457.64 C 1043.97 1450.21 1043.94 1436.09 1043.2 1428.93 C 1052.85 1429.2 1062.51 1429.24 1072.17 1429.03 L 1072.14 1384.3 z"/>
<path transform="translate(0,0)" fill="rgb(40,42,49)" d="M 942.528 1384.18 L 976.799 1384.38 C 976.442 1399.35 976.34 1414.33 976.494 1429.31 C 992.55 1429.46 1008.61 1429.31 1024.66 1428.86 C 1024.67 1438.37 1024.55 1447.88 1024.27 1457.39 C 1008.27 1457.26 992.267 1457.23 976.264 1457.31 L 976.543 1519.87 C 976.565 1552.45 972.394 1608.1 1024.76 1579.93 L 1029.79 1595.75 L 1033.65 1607.15 C 1000.06 1624.8 954.549 1622.35 944.643 1577.36 C 941.393 1562.59 942.827 1544.1 942.849 1528.78 L 942.934 1457.23 L 914.621 1457.15 C 914.204 1448.19 914.328 1438.07 914.235 1429.03 C 923.626 1428.93 933.289 1429.08 942.705 1429.12 C 942.464 1414.14 942.405 1399.16 942.528 1384.18 z"/>
<path transform="translate(0,0)" fill="rgb(40,42,49)" d="M 422.821 1384.51 C 433.911 1384.32 445.003 1384.24 456.094 1384.24 L 456.091 1429.1 C 471.561 1429.88 488.249 1429.5 503.707 1429.08 C 503.678 1438.47 503.699 1447.86 503.771 1457.25 C 487.822 1457.09 471.872 1457.01 455.923 1457.02 L 455.89 1521.98 C 455.695 1555.93 450.688 1605.65 503.898 1580.48 L 510.077 1596.18 L 513.888 1606.94 C 481.465 1624.43 434.964 1623.68 424.454 1579.38 C 420.976 1564.73 422.391 1545.07 422.407 1529.7 C 422.55 1505.53 422.476 1481.36 422.185 1457.2 L 394.434 1457.05 C 394.446 1447.73 394.572 1438.41 394.811 1429.09 C 404.078 1429.25 413.347 1429.3 422.615 1429.24 L 422.821 1384.51 z"/>
<path transform="translate(0,0)" fill="rgb(24,165,189)" d="M 1280.21 1681.48 C 1296.85 1677.93 1313.2 1688.6 1316.63 1705.27 C 1320.06 1721.93 1309.27 1738.2 1292.58 1741.51 C 1276.06 1744.79 1259.99 1734.13 1256.6 1717.63 C 1253.2 1701.14 1263.74 1685 1280.21 1681.48 z M 1267.07 1704.61 C 1266.64 1721.85 1271.74 1734.68 1291.84 1731.65 C 1298.67 1728.17 1303.03 1724.99 1305.41 1717.19 C 1307.16 1711.57 1306.43 1705.48 1303.4 1700.44 C 1298.37 1692.16 1290.18 1690.08 1281.11 1691.01 C 1272.35 1695.36 1271.86 1696.04 1267.07 1704.61 z"/>
<path transform="translate(0,0)" fill="rgb(24,165,189)" d="M 1327.98 1681.78 C 1348.38 1681.96 1377.98 1677.68 1382.7 1705.25 C 1384.68 1716.77 1382.9 1723.29 1376.1 1732.58 C 1363.27 1743.69 1345.26 1741.12 1328.56 1741.03 C 1327.12 1726.08 1327.98 1697.39 1327.98 1681.78 z M 1367.93 1726.18 C 1383.06 1699.82 1363.17 1690.48 1339.06 1691.96 L 1339 1731.95 C 1350.74 1731.94 1358.34 1733.19 1367.93 1726.18 z"/>
<path transform="translate(0,0)" fill="rgb(24,165,189)" d="M 1082.46 1681.09 C 1089.35 1680.84 1091.17 1682.3 1094.66 1688.16 C 1100.93 1698.69 1106.92 1709.53 1113.28 1720.01 C 1119.24 1711.16 1132.92 1682.43 1139.26 1679.81 C 1148.29 1682.21 1145.11 1730.53 1145.09 1741.13 L 1134.84 1741.63 L 1134.34 1719.75 C 1134.19 1711.7 1134.12 1708.06 1135.31 1700.19 C 1131.33 1707.95 1127.39 1715.78 1123.29 1723.48 C 1120.62 1728.48 1118.55 1733.47 1112.36 1732.94 C 1105.6 1728.57 1096.6 1710.36 1092.18 1702.58 C 1092.87 1708.14 1094.22 1736.57 1091.93 1740.36 C 1087.63 1740.92 1087.69 1740.97 1083.45 1740.28 C 1080.86 1735.05 1082.04 1689.68 1082.46 1681.09 z"/>
<path transform="translate(0,0)" fill="rgb(24,165,189)" d="M 1214.26 1720.66 C 1219.79 1709.6 1225.94 1698.77 1231.28 1687.59 C 1233.7 1682.53 1240.33 1678.19 1244.72 1683.53 C 1245.3 1687.67 1246.16 1736.92 1245.36 1740.23 C 1241.43 1741.22 1239.31 1742.25 1236.16 1739.3 C 1234.79 1734.06 1235.11 1723.62 1235.07 1717.75 L 1234.85 1701.27 C 1215.69 1747.05 1211.73 1738.09 1192.13 1701.67 C 1193.01 1715.43 1192.77 1727.91 1192.58 1741.69 C 1189.43 1741.45 1185.96 1741.38 1182.78 1741.25 C 1182.18 1731.74 1181.57 1688.81 1182.96 1681.05 C 1185.72 1680.98 1186.21 1681.03 1188.94 1681.46 C 1195.3 1685.79 1209.03 1711.84 1214.26 1720.66 z"/>
<path transform="translate(0,0)" fill="rgb(24,165,189)" d="M 584.536 1719.85 C 589.513 1709.49 596.651 1699.02 602.149 1688.82 C 604.372 1684.7 607.17 1679.11 612.272 1681.32 C 616.604 1687.57 616.937 1737.42 614.343 1740.58 C 611.214 1740.84 609.859 1741.16 606.773 1740.36 C 605.08 1736.05 605.706 1721.11 605.731 1715.75 L 605.692 1701.34 C 585.685 1745.78 583.999 1740.59 563.334 1701.66 C 563.663 1708.17 564.489 1735.06 563.087 1739.76 C 559.638 1741.03 558.913 1740.73 555.33 1740.32 C 552.494 1735.54 553.895 1689.23 554.101 1680.96 C 554.916 1680.96 558.992 1680.95 559.512 1681.22 C 567.174 1685.26 579.645 1711.43 584.536 1719.85 z"/>
<path transform="translate(0,0)" fill="rgb(24,165,189)" d="M 651.097 1680.99 C 653.413 1681.22 655.845 1681.67 658.156 1682.04 C 663.644 1685.27 680.934 1732.16 684.443 1740.96 C 671.591 1741.35 672.48 1739.08 668.003 1728 L 657.25 1728.06 L 638.773 1728.04 C 637.809 1730.87 635.261 1741.01 631.08 1741.04 C 628.599 1741.06 625.575 1741.31 623.62 1739.85 C 628.256 1722.83 641.129 1700.42 647.86 1683.55 C 648.299 1682.45 650.056 1681.49 651.097 1680.99 z M 643.528 1718.1 L 652.75 1717.96 C 655.769 1717.96 660.51 1718.28 663.08 1717.21 C 661.971 1714.37 654.839 1695.59 653.835 1693.96 L 643.528 1718.1 z"/>
<path transform="translate(0,0)" fill="rgb(24,165,189)" d="M 1028.25 1681.67 C 1036.87 1682.13 1064.59 1680.38 1069.48 1683.27 C 1070.08 1687.21 1070.34 1685.41 1069.03 1688.9 C 1063.96 1692.9 1047.19 1691.19 1039.8 1691.13 L 1039.79 1706.94 C 1044.75 1706.91 1061.94 1706.5 1065.83 1707.35 C 1067.01 1710.35 1066.81 1710.22 1066.34 1713.46 C 1059.95 1719.87 1045.6 1712.86 1039.83 1717.13 L 1039.92 1731.97 C 1044.84 1731.9 1069.38 1730.9 1071.78 1732.9 C 1071.87 1736.86 1072.58 1738.09 1070.93 1741.02 C 1064.62 1741.98 1036.93 1741.25 1028.62 1741.29 C 1028.35 1721.42 1028.23 1701.55 1028.25 1681.67 z"/>
<path transform="translate(0,0)" fill="rgb(24,165,189)" d="M 1508.98 1681.46 C 1516.28 1681.52 1542.8 1680.16 1547.37 1682.49 C 1547.81 1686.34 1547.93 1686.92 1547.42 1690.69 C 1540.88 1691.72 1524.82 1691.13 1517.51 1691.05 C 1517.82 1697.38 1517.72 1700.63 1517.31 1706.87 C 1526.75 1706.96 1536.2 1706.86 1545.64 1706.57 L 1545.19 1716.02 L 1519.75 1715.98 L 1517.79 1716.33 C 1516.95 1720.16 1517.64 1727.6 1517.85 1731.81 C 1525.13 1731.67 1542.2 1730.73 1548.12 1733.08 C 1549.03 1735.51 1548.8 1737.08 1548.76 1739.64 C 1545.2 1742.56 1514.56 1741.29 1507.16 1741.31 C 1506.62 1732.1 1505.97 1690.8 1507.29 1682.63 L 1508.98 1681.46 z"/>
<path transform="translate(0,0)" fill="rgb(24,165,189)" d="M 533.585 1681.51 L 538.063 1681.76 C 540.642 1682.99 540.787 1684.16 542.114 1686.79 C 541.902 1688.47 542.123 1689.41 540.702 1689.95 C 534.447 1692.35 516.822 1691.18 510.156 1691.01 L 509.967 1706.96 C 518.71 1707.02 528.438 1706 536.937 1707.14 C 538.753 1709.44 538.545 1711.6 538.798 1714.6 C 534.23 1717.22 516.346 1716.1 510.159 1715.99 L 510.188 1731.77 L 530.714 1731.7 C 534.217 1731.48 539.234 1730.57 541.942 1732.32 C 543.538 1735.19 543.138 1735.91 542.927 1739.22 C 539.372 1742.21 506.723 1740.96 499.336 1741.01 C 500.098 1730.27 499.904 1692.16 498.847 1681.83 C 510.232 1681.53 522.155 1681.6 533.585 1681.51 z"/>
<path transform="translate(0,0)" fill="rgb(24,165,189)" d="M 1394.61 1681.32 C 1395.53 1681.27 1403.25 1680.9 1403.53 1681.64 C 1409 1695.87 1398.9 1717.32 1409.89 1730.39 C 1411.37 1732.15 1415.06 1732.85 1417.26 1732.57 C 1445.37 1731.16 1427.19 1690.19 1434.64 1681.7 C 1438.08 1681.15 1438.74 1680.86 1442.19 1681.78 C 1444.23 1685.06 1443.46 1687.35 1443.44 1691.75 C 1443.58 1703.04 1445.01 1720.68 1440.29 1730.53 C 1431.41 1747.89 1398.75 1744.94 1394.77 1725.58 C 1393.6 1719.91 1392.35 1684.98 1394.61 1681.32 z"/>
<path transform="translate(0,0)" fill="rgb(24,165,189)" d="M 835.429 1681.18 C 844.016 1680.67 858.04 1679.59 862.704 1688.38 C 862.571 1692.14 863.21 1690.53 860.657 1693.36 C 855.65 1694.67 851.55 1691.77 845.359 1689.65 L 843.973 1689.96 C 839.11 1691.03 831.25 1692.08 832.402 1698.56 C 840.703 1709.01 862.437 1708.56 865.447 1722.61 C 868.067 1734.83 855.145 1740.24 846.223 1741.86 C 837.833 1742.02 824.861 1741.91 820.543 1733.44 C 821.484 1729.64 820.47 1731.03 823.297 1728.88 C 830.162 1727.69 853.39 1737.93 855.29 1725.39 C 850.649 1719.06 840.069 1717.09 833.015 1713.79 C 815.229 1705.45 815.653 1687.18 835.429 1681.18 z"/>
<path transform="translate(0,0)" fill="rgb(24,165,189)" d="M 762.159 1681.15 C 769.516 1680.66 785.593 1679.3 787.931 1688.12 C 786.718 1692.41 787.872 1690.81 784.949 1693.46 C 779.87 1694.34 757.921 1684.67 758.494 1698.91 C 764.666 1708.63 790.263 1708.12 791.306 1723.46 C 792.269 1737.62 778.88 1741.48 768.257 1742.61 C 760.357 1742.1 753.086 1740.84 747.035 1735.3 C 746.153 1731.77 746.213 1733.66 748.2 1729.46 C 756.429 1723.73 771.886 1740.93 779.386 1726.92 C 782.285 1721.51 771.235 1717.66 766.873 1716.46 C 743.93 1710.18 737.15 1691.51 762.159 1681.15 z"/>
<path transform="translate(0,0)" fill="rgb(24,165,189)" d="M 938.02 1681.19 C 940.165 1681.08 942.312 1681 944.46 1680.95 C 952.354 1680.81 965.61 1681.23 965.541 1691.94 C 960.353 1695.61 938.232 1683.94 935.2 1697.77 C 939.057 1705.57 952.487 1707.01 959.381 1711.33 C 977.435 1722.64 970.064 1738.74 950.964 1742.05 C 942.888 1742.11 931.545 1741.66 925.334 1736.04 C 924.219 1732.95 924.113 1733.38 925.512 1729.58 C 928.527 1721.38 941.844 1735.7 950.466 1732.39 C 954.068 1731 955.082 1731.3 957.699 1727.17 C 958.848 1714.67 931.17 1717.7 926.033 1704.47 C 921.365 1692.44 927.329 1685.69 938.02 1681.19 z"/>
<path transform="translate(0,0)" fill="rgb(24,165,189)" d="M 710.78 1681.17 C 719.793 1680.57 741.269 1681.55 739.033 1695.15 C 730.922 1701.19 711.048 1679.94 700.611 1701.87 C 697.995 1707.46 697.732 1713.86 699.884 1719.64 C 701.711 1724.62 705.478 1728.66 710.328 1730.82 C 716.538 1733.55 721.228 1732.26 727.179 1729.85 C 729.45 1727.7 729.612 1727.55 732.28 1725.95 C 735.786 1726.12 734.26 1725.54 737.002 1727.78 C 740.141 1744.13 715.035 1743.54 704.59 1738.81 C 696.72 1735.32 690.725 1728.62 688.132 1720.42 C 681.946 1701.17 692.85 1686.97 710.78 1681.17 z"/>
<path transform="translate(0,0)" fill="rgb(24,165,189)" d="M 911.451 1681.09 L 922.043 1681.7 C 915.059 1694.93 907.649 1708.96 899.891 1721.68 C 899.756 1727.74 901.56 1736.19 898.086 1740.49 C 894.919 1741.76 894.464 1741.32 891.112 1740.63 C 885.984 1727.49 894.793 1729.17 881.222 1706.46 C 878.367 1701.89 867.711 1686.56 868.538 1682.16 C 878.558 1679.76 881.41 1685.51 885.294 1693.33 C 888.253 1699.29 891.462 1704.84 894.947 1710.5 C 898.758 1703.5 907.141 1686.58 911.451 1681.09 z"/>
<path transform="translate(0,0)" fill="rgb(24,165,189)" d="M 972.026 1681.2 C 979.767 1682.04 1016.76 1679.85 1019.66 1682.85 C 1019.95 1686.47 1020.32 1687.41 1018.58 1690.62 C 1014.63 1693.13 1006.47 1691.79 1001.29 1691.49 C 1001.82 1700.65 1001.51 1714.37 1001.55 1723.87 L 1001.39 1741.69 L 990.779 1741.49 C 990.062 1726.88 989.849 1706.02 990.694 1691.45 C 985.792 1691.24 977.045 1691.99 973.303 1690.09 C 971.087 1686.37 971.927 1686.37 972.026 1681.2 z"/>
<path transform="translate(0,0)" fill="rgb(24,165,189)" d="M 1458.19 1681.28 L 1468.96 1681.4 L 1468.97 1732.07 C 1478.07 1732.08 1488.92 1730.23 1496.33 1733 C 1498.71 1735.98 1497.85 1736.35 1497.96 1741.23 C 1485.63 1740.78 1471.25 1741.18 1458.77 1741.25 C 1457.26 1724.54 1458.09 1698.63 1458.19 1681.28 z"/>
</svg>